{"asset":{"version":"2.0","generator":"babylon.js glTF exporter for 3dsmax 2019 v20200721.1"},"scene":0,"scenes":[{"nodes":[0,5,6,7,8,9]}],"nodes":[{"children":[1],"rotation":[0.7071068,0.0,0.0,0.7071067],"name":"robot_cute"},{"children":[2,3,4],"name":"model"},{"skin":0,"mesh":0,"translation":[0.0,-0.001817102,-0.228076026],"name":"tou001","extras":{"currentUVSet":"map1"}},{"skin":1,"mesh":1,"translation":[0.0,-0.00330887781,-0.105134331],"name":"shenti001","extras":{"currentUVSet":"map1"}},{"skin":2,"mesh":2,"translation":[3.81469718E-08,0.07965474,-0.213475853],"name":"EVE","extras":{"currentUVSet":"map1"}},{"skin":3,"mesh":3,"translation":[0.0102525707,0.09139297,0.0006705217],"name":"Object002"},{"skin":4,"mesh":4,"translation":[0.0,0.105134331,-0.00330887339],"rotation":[0.7071068,0.0,0.0,0.7071067],"name":"Object004"},{"skin":5,"mesh":5,"translation":[0.000263938884,0.217330992,0.0405325256],"rotation":[0.7372776,0.0,0.0,0.675589859],"name":"Object005"},{"name":"Default light"},{"children":[10],"translation":[3.103586E-07,0.0395290442,-0.0122526428],"rotation":[-0.707105637,-0.707105756,0.00122745754,-0.001239534],"scale":[1.0,0.99999994,1.0],"name":"Base HumanPelvis"},{"children":[11],"translation":[0.0153691741,-4.01405464E-10,0.000795542],"rotation":[6.373757E-06,0.0237159673,-8.084845E-05,0.9997187],"scale":[1.00000036,1.0,1.00000024],"name":"Base HumanSpine"},{"children":[12,13,20],"translation":[0.0807632,-1.16415319E-12,0.0],"rotation":[-6.511484E-06,-0.0219720118,8.07722E-05,0.999758542],"scale":[0.9999999,1.0,0.99999994],"name":"Base HumanRibcage"},{"translation":[0.000184583667,-3.101304E-09,-0.00709432131],"rotation":[-1.21312054E-08,0.0240743011,-7.876404E-08,0.999710143],"scale":[0.99999994,1.00000012,1.0],"name":"Base HumanNeck"},{"children":[14],"translation":[-0.0143221943,0.0433064252,-0.00601281039],"rotation":[0.0340373665,0.0138422977,0.499683827,0.86542815],"scale":[1.0,1.0,0.9999998],"name":"Base HumanLCollarbone"},{"children":[15],"translation":[0.0251003634,0.0,5.96046434E-10],"rotation":[-0.0607245229,-0.0208613537,0.665637553,0.7435079],"scale":[0.999998748,1.00000107,1.0],"name":"Base HumanLUpperarm"},{"children":[16],"translation":[0.03191307,0.0,0.0],"rotation":[-0.0009223111,0.0926087946,0.08851139,0.9917603],"scale":[0.9999982,1.00000191,1.00000072],"name":"Base HumanLForearm"},{"children":[17,18,19],"translation":[0.02749842,0.0,0.0],"rotation":[-0.695547342,0.0535887033,0.0185088851,0.7162399],"scale":[0.999994338,1.0000031,1.00000167],"name":"Base HumanLPalm"},{"translation":[0.0140037769,0.0102065215,0.008410711],"rotation":[0.4492997,-0.195704848,0.452467173,0.7450514],"scale":[0.9999851,1.00001264,1.00000191],"name":"Base HumanLDigit11"},{"translation":[0.02608738,0.0113046514,0.0],"rotation":[0.03758401,-0.169532984,0.0429565348,0.983870268],"scale":[0.9999929,1.00000155,1.00000572],"name":"Base HumanLDigit21"},{"translation":[0.02608738,-0.0113046523,9.536743E-09],"rotation":[-4.17074034E-07,-0.130526185,-3.19382679E-07,0.9914449],"scale":[0.9999936,1.00000119,1.00000489],"name":"Base HumanLDigit31"},{"children":[21],"translation":[-0.0143221943,-0.04330644,-0.00601281039],"rotation":[-0.0340372957,0.0138422577,-0.499683917,0.86542815],"scale":[1.00000012,1.0,0.999999762],"name":"Base HumanRCollarbone"},{"children":[22],"translation":[0.0251003541,0.0,0.0],"rotation":[0.0607245266,-0.0208614543,-0.665637553,0.7435079],"scale":[1.000001,0.9999984,1.00000036],"name":"Base HumanRUpperarm"},{"children":[23],"translation":[0.03191307,0.0,0.0],"rotation":[0.0009224015,0.0926087946,-0.08851148,0.9917603],"scale":[1.00000226,0.9999986,0.9999998],"name":"Base HumanRForearm"},{"children":[24,25,26],"translation":[0.0274984259,9.536743E-09,1.19209287E-09],"rotation":[0.695547342,0.053588625,-0.0185086224,0.7162399],"scale":[1.000006,0.9999962,0.999998569],"name":"Base HumanRPalm"},{"translation":[0.01400393,-0.0102064358,0.008410692],"rotation":[-0.449303538,-0.195707709,-0.4524667,0.7450504],"scale":[1.00001538,0.9999864,0.9999981],"name":"Base HumanRDigit11"},{"translation":[0.0260876641,-0.0113045583,1.90734859E-08],"rotation":[-0.0375841148,-0.169532955,-0.04295645,0.983870268],"scale":[1.00000715,0.99999845,0.9999938],"name":"Base HumanRDigit21"},{"translation":[0.02608766,0.0113045592,1.90734859E-08],"rotation":[2.912023E-07,-0.130526185,2.36717909E-07,0.9914449],"scale":[1.00000632,0.999998748,0.9999946],"name":"Base HumanRDigit31"}],"meshes":[{"primitives":[{"attributes":{"POSITION":1,"NORMAL":2,"TEXCOORD_0":3,"JOINTS_0":4,"WEIGHTS_0":5},"indices":0,"material":0}],"name":"tou001"},{"primitives":[{"attributes":{"POSITION":7,"NORMAL":8,"TEXCOORD_0":9,"JOINTS_0":10,"WEIGHTS_0":11},"indices":6,"material":1}],"name":"shenti001"},{"primitives":[{"attributes":{"POSITION":13,"NORMAL":14,"TEXCOORD_0":15,"JOINTS_0":16,"WEIGHTS_0":17},"indices":12,"material":2}],"name":"EVE"},{"primitives":[{"attributes":{"POSITION":19,"NORMAL":20,"TEXCOORD_0":21,"JOINTS_0":22,"WEIGHTS_0":23},"indices":18,"material":3}],"name":"Object002"},{"primitives":[{"attributes":{"POSITION":25,"NORMAL":26,"TEXCOORD_0":27,"JOINTS_0":28,"WEIGHTS_0":29},"indices":24,"material":1}],"name":"Object004"},{"primitives":[{"attributes":{"POSITION":31,"NORMAL":32,"TEXCOORD_0":33,"JOINTS_0":34,"WEIGHTS_0":35},"indices":30,"material":4}],"name":"Object005"}],"accessors":[{"bufferView":0,"componentType":5123,"count":11148,"type":"SCALAR","name":"accessorIndices"},{"bufferView":1,"componentType":5126,"count":11148,"max":[0.104368754,0.103070974,0.103455596],"min":[-0.104434252,-0.10210257,-0.0830003545],"type":"VEC3","name":"accessorPositions"},{"bufferView":1,"byteOffset":133776,"componentType":5126,"count":11148,"type":"VEC3","name":"accessorNormals"},{"bufferView":2,"componentType":5126,"count":11148,"type":"VEC2","name":"accessorUVs"},{"bufferView":3,"componentType":5123,"count":11148,"type":"VEC4","name":"accessorJoints"},{"bufferView":4,"componentType":5126,"count":11148,"type":"VEC4","name":"accessorWeights"},{"bufferView":0,"byteOffset":22296,"componentType":5123,"count":8640,"type":"SCALAR","name":"accessorIndices"},{"bufferView":1,"byteOffset":267552,"componentType":5126,"count":8640,"max":[0.06889636,0.0590339638,0.060156282],"min":[-0.06895897,-0.0586886071,-0.0453179926],"type":"VEC3","name":"accessorPositions"},{"bufferView":1,"byteOffset":371232,"componentType":5126,"count":8640,"type":"VEC3","name":"accessorNormals"},{"bufferView":2,"byteOffset":89184,"componentType":5126,"count":8640,"type":"VEC2","name":"accessorUVs"},{"bufferView":3,"byteOffset":89184,"componentType":5123,"count":8640,"type":"VEC4","name":"accessorJoints"},{"bufferView":4,"byteOffset":178368,"componentType":5126,"count":8640,"type":"VEC4","name":"accessorWeights"},{"bufferView":0,"byteOffset":39576,"componentType":5123,"count":480,"type":"SCALAR","name":"accessorIndices"},{"bufferView":1,"byteOffset":474912,"componentType":5126,"count":480,"max":[0.06917375,0.0233638138,0.0295035746],"min":[-0.06923926,-0.0223953426,-0.0294639766],"type":"VEC3","name":"accessorPositions"},{"bufferView":1,"byteOffset":480672,"componentType":5126,"count":480,"type":"VEC3","name":"accessorNormals"},{"bufferView":2,"byteOffset":158304,"componentType":5126,"count":480,"type":"VEC2","name":"accessorUVs"},{"bufferView":3,"byteOffset":158304,"componentType":5123,"count":480,"type":"VEC4","name":"accessorJoints"},{"bufferView":4,"byteOffset":316608,"componentType":5126,"count":480,"type":"VEC4","name":"accessorWeights"},{"bufferView":0,"byteOffset":40536,"componentType":5123,"count":12744,"type":"SCALAR","name":"accessorIndices"},{"bufferView":1,"byteOffset":486432,"componentType":5126,"count":12744,"max":[0.119347505,0.05943073,0.02951641],"min":[-0.139879137,-0.0572614037,-0.0290271379],"type":"VEC3","name":"accessorPositions"},{"bufferView":1,"byteOffset":639360,"componentType":5126,"count":12744,"type":"VEC3","name":"accessorNormals"},{"bufferView":2,"byteOffset":162144,"componentType":5126,"count":12744,"type":"VEC2","name":"accessorUVs"},{"bufferView":3,"byteOffset":162144,"componentType":5123,"count":12744,"type":"VEC4","name":"accessorJoints"},{"bufferView":4,"byteOffset":324288,"componentType":5126,"count":12744,"type":"VEC4","name":"accessorWeights"},{"bufferView":0,"byteOffset":66024,"componentType":5123,"count":1944,"type":"SCALAR","name":"accessorIndices"},{"bufferView":1,"byteOffset":792288,"componentType":5126,"count":1944,"max":[0.0311919786,0.03449274,0.105134338],"min":[-0.0311919786,-0.02789123,0.0443447977],"type":"VEC3","name":"accessorPositions"},{"bufferView":1,"byteOffset":815616,"componentType":5126,"count":1944,"type":"VEC3","name":"accessorNormals"},{"bufferView":2,"byteOffset":264096,"componentType":5126,"count":1944,"type":"VEC2","name":"accessorUVs"},{"bufferView":3,"byteOffset":264096,"componentType":5123,"count":1944,"type":"VEC4","name":"accessorJoints"},{"bufferView":4,"byteOffset":528192,"componentType":5126,"count":1944,"type":"VEC4","name":"accessorWeights"},{"bufferView":0,"byteOffset":69912,"componentType":5123,"count":1488,"type":"SCALAR","name":"accessorIndices"},{"bufferView":1,"byteOffset":838944,"componentType":5126,"count":1488,"max":[0.08850085,0.07121232,0.0258643329],"min":[-0.08856502,-0.0270247683,-0.09018963],"type":"VEC3","name":"accessorPositions"},{"bufferView":1,"byteOffset":856800,"componentType":5126,"count":1488,"type":"VEC3","name":"accessorNormals"},{"bufferView":2,"byteOffset":279648,"componentType":5126,"count":1488,"type":"VEC2","name":"accessorUVs"},{"bufferView":3,"byteOffset":279648,"componentType":5123,"count":1488,"type":"VEC4","name":"accessorJoints"},{"bufferView":4,"byteOffset":559296,"componentType":5126,"count":1488,"type":"VEC4","name":"accessorWeights"},{"bufferView":5,"componentType":5126,"count":4,"type":"MAT4","name":"accessorInverseBindMatrices"},{"bufferView":5,"byteOffset":256,"componentType":5126,"count":4,"type":"MAT4","name":"accessorInverseBindMatrices"},{"bufferView":5,"byteOffset":512,"componentType":5126,"count":4,"type":"MAT4","name":"accessorInverseBindMatrices"},{"bufferView":5,"byteOffset":768,"componentType":5126,"count":17,"type":"MAT4","name":"accessorInverseBindMatrices"},{"bufferView":5,"byteOffset":1856,"componentType":5126,"count":4,"type":"MAT4","name":"accessorInverseBindMatrices"},{"bufferView":5,"byteOffset":2112,"componentType":5126,"count":4,"type":"MAT4","name":"accessorInverseBindMatrices"},{"bufferView":6,"componentType":5126,"count":103,"max":[4.0],"min":[0.0],"type":"SCALAR","name":"accessorAnimationInput"},{"bufferView":7,"componentType":5126,"count":103,"type":"VEC3","name":"accessorAnimationPositions"},{"bufferView":8,"componentType":5126,"count":103,"type":"VEC4","name":"accessorAnimationRotations"},{"bufferView":7,"byteOffset":1236,"componentType":5126,"count":103,"type":"VEC3","name":"accessorAnimationScales"},{"bufferView":6,"byteOffset":412,"componentType":5126,"count":103,"max":[4.0],"min":[0.0],"type":"SCALAR","name":"accessorAnimationInput"},{"bufferView":7,"byteOffset":2472,"componentType":5126,"count":103,"type":"VEC3","name":"accessorAnimationPositions"},{"bufferView":8,"byteOffset":1648,"componentType":5126,"count":103,"type":"VEC4","name":"accessorAnimationRotations"},{"bufferView":7,"byteOffset":3708,"componentType":5126,"count":103,"type":"VEC3","name":"accessorAnimationScales"},{"bufferView":6,"byteOffset":824,"componentType":5126,"count":120,"max":[4.0],"min":[0.0],"type":"SCALAR","name":"accessorAnimationInput"},{"bufferView":7,"byteOffset":4944,"componentType":5126,"count":120,"type":"VEC3","name":"accessorAnimationPositions"},{"bufferView":8,"byteOffset":3296,"componentType":5126,"count":120,"type":"VEC4","name":"accessorAnimationRotations"},{"bufferView":7,"byteOffset":6384,"componentType":5126,"count":120,"type":"VEC3","name":"accessorAnimationScales"},{"bufferView":6,"byteOffset":1304,"componentType":5126,"count":62,"max":[4.0],"min":[0.0],"type":"SCALAR","name":"accessorAnimationInput"},{"bufferView":7,"byteOffset":7824,"componentType":5126,"count":62,"type":"VEC3","name":"accessorAnimationPositions"},{"bufferView":8,"byteOffset":5216,"componentType":5126,"count":62,"type":"VEC4","name":"accessorAnimationRotations"},{"bufferView":7,"byteOffset":8568,"componentType":5126,"count":62,"type":"VEC3","name":"accessorAnimationScales"},{"bufferView":6,"byteOffset":1552,"componentType":5126,"count":117,"max":[4.0],"min":[0.0],"type":"SCALAR","name":"accessorAnimationInput"},{"bufferView":7,"byteOffset":9312,"componentType":5126,"count":117,"type":"VEC3","name":"accessorAnimationPositions"},{"bufferView":8,"byteOffset":6208,"componentType":5126,"count":117,"type":"VEC4","name":"accessorAnimationRotations"},{"bufferView":7,"byteOffset":10716,"componentType":5126,"count":117,"type":"VEC3","name":"accessorAnimationScales"},{"bufferView":6,"byteOffset":2020,"componentType":5126,"count":121,"max":[4.0],"min":[0.0],"type":"SCALAR","name":"accessorAnimationInput"},{"bufferView":7,"byteOffset":12120,"componentType":5126,"count":121,"type":"VEC3","name":"accessorAnimationPositions"},{"bufferView":8,"byteOffset":8080,"componentType":5126,"count":121,"type":"VEC4","name":"accessorAnimationRotations"},{"bufferView":7,"byteOffset":13572,"componentType":5126,"count":121,"type":"VEC3","name":"accessorAnimationScales"}],"bufferViews":[{"buffer":0,"byteLength":72888,"name":"bufferViewScalar"},{"buffer":0,"byteOffset":72888,"byteLength":874656,"byteStride":12,"name":"bufferViewFloatVec3"},{"buffer":0,"byteOffset":947544,"byteLength":291552,"byteStride":8,"name":"bufferViewFloatVec2"},{"buffer":0,"byteOffset":1239096,"byteLength":291552,"byteStride":8,"name":"bufferViewUnsignedShortVec4"},{"buffer":0,"byteOffset":1530648,"byteLength":583104,"byteStride":16,"name":"bufferViewFloatVec4"},{"buffer":0,"byteOffset":2113752,"byteLength":2368,"name":"bufferViewFloatMat4"},{"buffer":0,"byteOffset":2116120,"byteLength":2504,"name":"bufferViewAnimationFloatScalar"},{"buffer":0,"byteOffset":2118624,"byteLength":15024,"name":"bufferViewAnimationFloatVec3"},{"buffer":0,"byteOffset":2133648,"byteLength":10016,"name":"bufferViewAnimationFloatVec4"}],"buffers":[{"uri":"robot_hi.bin","byteLength":2143664}],"materials":[{"pbrMetallicRoughness":{"baseColorTexture":{"index":3},"metallicRoughnessTexture":{"index":1}},"normalTexture":{"index":0},"occlusionTexture":{"index":1},"emissiveTexture":{"index":2},"emissiveFactor":[1.0,1.0,1.0],"name":"head"},{"pbrMetallicRoughness":{"baseColorTexture":{"index":7},"metallicRoughnessTexture":{"index":5}},"normalTexture":{"index":4},"occlusionTexture":{"index":5},"emissiveTexture":{"index":6},"emissiveFactor":[1.0,1.0,1.0],"name":"body"},{"pbrMetallicRoughness":{"baseColorTexture":{"index":11},"metallicRoughnessTexture":{"index":9}},"normalTexture":{"index":8},"occlusionTexture":{"index":9},"emissiveTexture":{"index":10},"emissiveFactor":[1.0,1.0,1.0],"name":"nn"},{"pbrMetallicRoughness":{"baseColorTexture":{"index":15},"metallicRoughnessTexture":{"index":13}},"normalTexture":{"index":12},"occlusionTexture":{"index":13},"emissiveTexture":{"index":14},"emissiveFactor":[1.0,1.0,1.0],"name":"hand"},{"pbrMetallicRoughness":{"baseColorTexture":{"index":18},"metallicRoughnessTexture":{"index":17}},"normalTexture":{"index":16},"occlusionTexture":{"index":17},"name":"_"}],"textures":[{"sampler":0,"source":0,"name":"ROBOT_head_Normal.png"},{"sampler":0,"source":1,"name":"ROBOT_head_AOROBOT_head_SmoothnessROBOT_head_Metallic.jpg"},{"sampler":0,"source":2,"name":"ROBOT_head_Emission.png"},{"sampler":0,"source":3,"name":"ROBOT_head_Albedo.png"},{"sampler":0,"source":4,"name":"ROBOT_body_Normal.png"},{"sampler":0,"source":5,"name":"ROBOT_body_AOROBOT_body_SmoothnessROBOT_body_Metallic.jpg"},{"sampler":0,"source":6,"name":"ROBOT_body_Emission.png"},{"sampler":0,"source":7,"name":"ROBOT_body_Albedo.png"},{"sampler":0,"source":8,"name":"ROBOT_EYE]_Normal.png"},{"sampler":0,"source":9,"name":"ROBOT_EYE]_AlbedoROBOT_EYE]_SmoothnessROBOT_EYE]_Metallic.jpg"},{"sampler":0,"source":10,"name":"ROBOT_EYE]_Emission.png"},{"sampler":0,"source":11,"name":"ROBOT_EYE]_AO.png"},{"sampler":0,"source":12,"name":"ROBOT_hand_2_Normal.png"},{"sampler":0,"source":13,"name":"ROBOT_hand_2_AOROBOT_hand_2_SmoothnessROBOT_hand_2_Metallic.jpg"},{"sampler":0,"source":14,"name":"ROBOT_hand_2_Emission.png"},{"sampler":0,"source":15,"name":"ROBOT_hand_2_Albedo.png"},{"sampler":0,"source":16,"name":"ROBOT-1___Normal.png"},{"sampler":0,"source":17,"name":"ROBOT-1___AlbedoROBOT-1___SmoothnessROBOT-1___Metallic.jpg"},{"sampler":0,"source":18,"name":"ROBOT-1___AO.png"}],"images":[{"uri":"./ROBOT_head_Normal.png"},{"uri":"./ROBOT_head_AOROBOT_head_SmoothnessROBOT_head_Metallic.jpg"},{"uri":"./ROBOT_head_Emission.png"},{"uri":"./ROBOT_head_Albedo.png"},{"uri":"./ROBOT_body_Normal.png"},{"uri":"./ROBOT_body_AOROBOT_body_SmoothnessROBOT_body_Metallic.jpg"},{"uri":"./ROBOT_body_Emission.png"},{"uri":"./ROBOT_body_Albedo.png"},{"uri":"./ROBOT_EYE]_Normal.png"},{"uri":"./ROBOT_EYE]_AlbedoROBOT_EYE]_SmoothnessROBOT_EYE]_Metallic.jpg"},{"uri":"./ROBOT_EYE]_Emission.png"},{"uri":"./ROBOT_EYE]_AO.png"},{"uri":"./ROBOT_hand_2_Normal.png"},{"uri":"./ROBOT_hand_2_AOROBOT_hand_2_SmoothnessROBOT_hand_2_Metallic.jpg"},{"uri":"./ROBOT_hand_2_Emission.png"},{"uri":"./ROBOT_hand_2_Albedo.png"},{"uri":"./ROBOT-1___Normal.png"},{"uri":"./ROBOT-1___AlbedoROBOT-1___SmoothnessROBOT-1___Metallic.jpg"},{"uri":"./ROBOT-1___AO.png"}],"samplers":[{"magFilter":9729,"minFilter":9987}],"animations":[{"channels":[{"sampler":0,"target":{"node":10,"path":"translation"}},{"sampler":1,"target":{"node":10,"path":"rotation"}},{"sampler":2,"target":{"node":10,"path":"scale"}},{"sampler":3,"target":{"node":11,"path":"translation"}},{"sampler":4,"target":{"node":11,"path":"rotation"}},{"sampler":5,"target":{"node":11,"path":"scale"}},{"sampler":6,"target":{"node":14,"path":"translation"}},{"sampler":7,"target":{"node":14,"path":"rotation"}},{"sampler":8,"target":{"node":14,"path":"scale"}},{"sampler":9,"target":{"node":21,"path":"translation"}},{"sampler":10,"target":{"node":21,"path":"rotation"}},{"sampler":11,"target":{"node":21,"path":"scale"}},{"sampler":12,"target":{"node":22,"path":"translation"}},{"sampler":13,"target":{"node":22,"path":"rotation"}},{"sampler":14,"target":{"node":22,"path":"scale"}},{"sampler":15,"target":{"node":23,"path":"translation"}},{"sampler":16,"target":{"node":23,"path":"rotation"}},{"sampler":17,"target":{"node":23,"path":"scale"}}],"samplers":[{"input":42,"output":43},{"input":42,"output":44},{"input":42,"output":45},{"input":46,"output":47},{"input":46,"output":48},{"input":46,"output":49},{"input":50,"output":51},{"input":50,"output":52},{"input":50,"output":53},{"input":54,"output":55},{"input":54,"output":56},{"input":54,"output":57},{"input":58,"output":59},{"input":58,"output":60},{"input":58,"output":61},{"input":62,"output":63},{"input":62,"output":64},{"input":62,"output":65}],"name":"All Animations"}],"skins":[{"inverseBindMatrices":36,"skeleton":9,"joints":[9,10,11,12],"name":"skeleton #0"},{"inverseBindMatrices":37,"skeleton":9,"joints":[9,10,11,12],"name":"skeleton #0_1"},{"inverseBindMatrices":38,"skeleton":9,"joints":[9,10,11,12],"name":"skeleton #0_2"},{"inverseBindMatrices":39,"skeleton":9,"joints":[9,10,11,13,14,15,16,17,18,19,20,21,22,23,24,25,26],"name":"skeleton #1"},{"inverseBindMatrices":40,"skeleton":9,"joints":[9,10,11,12],"name":"skeleton #0_3"},{"inverseBindMatrices":41,"skeleton":9,"joints":[9,10,11,12],"name":"skeleton #0_4"}]}