{
  "accessors": [
    {
      "bufferView": 0,
      "componentType": 5125,
      "count": 15480,
      "type": "SCALAR"
    },
    {
      "bufferView": 1,
      "componentType": 5126,
      "count": 5306,
      "max": [
        275.0947265625,
        -48.2499923706055,
        20.0000267028809
      ],
      "min": [
        -275.094696044922,
        -125.874984741211,
        -2.6702880859375e-05
      ],
      "type": "VEC3"
    },
    {
      "bufferView": 2,
      "componentType": 5126,
      "count": 5306,
      "type": "VEC3"
    },
    {
      "bufferView": 3,
      "componentType": 5126,
      "count": 5306,
      "type": "VEC2"
    }
  ],
  "asset": {
    "generator": "Substance Painter 6.2.0",
    "version": "2.0"
  },
  "bufferViews": [
    {
      "buffer": 0,
      "byteLength": 61920,
      "target": 34963
    },
    {
      "buffer": 0,
      "byteLength": 63672,
      "byteOffset": 61920,
      "target": 34962
    },
    {
      "buffer": 0,
      "byteLength": 63672,
      "byteOffset": 125592,
      "target": 34962
    },
    {
      "buffer": 0,
      "byteLength": 42448,
      "byteOffset": 189264,
      "target": 34962
    }
  ],
  "buffers": [
    {
      "byteLength": 231712,
      "uri": "FeatureProduct_Title.bin"
    }
  ],
  "images": [
    {
      "uri": "Texture_baseColor.png"
    },
    {
      "uri": "Texture_occlusionRoughnessMetallic.png"
    },
    {
      "uri": "Texture_normal.png"
    },
    {
      "uri": "Texture_emissive.png"
    }
  ],
  "materials": [
    {
      "alphaMode": "BLEND",
      "emissiveFactor": [
        1.0,
        1.0,
        1.0
      ],
      "emissiveTexture": {
        "index": 3
      },
      "name": "Texture",
      "normalTexture": {
        "index": 2
      },
      "occlusionTexture": {
        "index": 1
      },
      "pbrMetallicRoughness": {
        "baseColorTexture": {
          "index": 0
        },
        "metallicRoughnessTexture": {
          "index": 1
        }
      }
    }
  ],
  "meshes": [
    {
      "name": "Text170",
      "primitives": [
        {
          "attributes": {
            "NORMAL": 2,
            "POSITION": 1,
            "TEXCOORD_0": 3
          },
          "indices": 0,
          "material": 0,
          "mode": 4
        }
      ]
    }
  ],
  "nodes": [
    {
      "children": [
        1
      ],
      "name": "RootNode"
    },
    {
      "children": [
        2
      ],
      "name": "Text170",
      "rotation": [
        7.38281400458618e-08,
        -0.422618240118027,
        3.44266268825777e-08,
        0.906307816505432
      ],
      "translation": [
        1055.22888183594,
        336.834320068359,
        -5.19987344741821
      ]
    },
    {
      "mesh": 0,
      "name": "Text170"
    }
  ],
  "samplers": [
    {
      "magFilter": 9729,
      "minFilter": 9985,
      "wrapS": 10497,
      "wrapT": 10497
    }
  ],
  "scene": 0,
  "scenes": [
    {
      "name": "Scene",
      "nodes": [
        0
      ]
    }
  ],
  "textures": [
    {
      "sampler": 0,
      "source": 0
    },
    {
      "sampler": 0,
      "source": 1
    },
    {
      "sampler": 0,
      "source": 2
    },
    {
      "sampler": 0,
      "source": 3
    }
  ]
}